<svg width="774" height="177" viewBox="0 0 774 177" fill="none" xmlns="http://www.w3.org/2000/svg">
<g clip-path="url(#clip0)">
<path d="M201.48 92.2C201.48 83.0267 203.187 74.9733 206.6 68.04C210.12 61.1067 214.867 55.7733 220.84 52.04C226.813 48.3067 233.48 46.44 240.84 46.44C247.133 46.44 252.627 47.72 257.32 50.28C262.12 52.84 265.8 56.2 268.36 60.36V47.72H295.72V137H268.36V124.36C265.693 128.52 261.96 131.88 257.16 134.44C252.467 137 246.973 138.28 240.68 138.28C233.427 138.28 226.813 136.413 220.84 132.68C214.867 128.84 210.12 123.453 206.6 116.52C203.187 109.48 201.48 101.373 201.48 92.2ZM268.36 92.36C268.36 85.5333 266.44 80.1467 262.6 76.2C258.867 72.2533 254.28 70.28 248.84 70.28C243.4 70.28 238.76 72.2533 234.92 76.2C231.187 80.04 229.32 85.3733 229.32 92.2C229.32 99.0267 231.187 104.467 234.92 108.52C238.76 112.467 243.4 114.44 248.84 114.44C254.28 114.44 258.867 112.467 262.6 108.52C266.44 104.573 268.36 99.1867 268.36 92.36ZM310.074 92.36C310.074 83.08 311.94 74.9733 315.674 68.04C319.514 61.1067 324.794 55.7733 331.514 52.04C338.34 48.3067 346.127 46.44 354.874 46.44C366.074 46.44 375.407 49.3733 382.874 55.24C390.447 61.1067 395.407 69.3733 397.754 80.04H368.634C366.18 73.2133 361.434 69.8 354.394 69.8C349.38 69.8 345.38 71.7733 342.394 75.72C339.407 79.56 337.914 85.1067 337.914 92.36C337.914 99.6133 339.407 105.213 342.394 109.16C345.38 113 349.38 114.92 354.394 114.92C361.434 114.92 366.18 111.507 368.634 104.68H397.754C395.407 115.133 390.447 123.347 382.874 129.32C375.3 135.293 365.967 138.28 354.874 138.28C346.127 138.28 338.34 136.413 331.514 132.68C324.794 128.947 319.514 123.613 315.674 116.68C311.94 109.747 310.074 101.64 310.074 92.36ZM439.749 62.6C442.949 57.6933 446.949 53.8533 451.749 51.08C456.549 48.2 461.882 46.76 467.749 46.76V75.72H460.229C453.402 75.72 448.282 77.2133 444.869 80.2C441.455 83.08 439.749 88.2 439.749 95.56V137H412.389V47.72H439.749V62.6ZM521.466 138.28C512.72 138.28 504.826 136.413 497.786 132.68C490.853 128.947 485.36 123.613 481.306 116.68C477.36 109.747 475.386 101.64 475.386 92.36C475.386 83.1867 477.413 75.1333 481.466 68.2C485.52 61.16 491.066 55.7733 498.106 52.04C505.146 48.3067 513.04 46.44 521.786 46.44C530.533 46.44 538.426 48.3067 545.466 52.04C552.506 55.7733 558.053 61.16 562.106 68.2C566.16 75.1333 568.186 83.1867 568.186 92.36C568.186 101.533 566.106 109.64 561.946 116.68C557.893 123.613 552.293 128.947 545.146 132.68C538.106 136.413 530.213 138.28 521.466 138.28ZM521.466 114.6C526.693 114.6 531.12 112.68 534.746 108.84C538.48 105 540.346 99.5067 540.346 92.36C540.346 85.2133 538.533 79.72 534.906 75.88C531.386 72.04 527.013 70.12 521.786 70.12C516.453 70.12 512.026 72.04 508.506 75.88C504.986 79.6133 503.226 85.1067 503.226 92.36C503.226 99.5067 504.933 105 508.346 108.84C511.866 112.68 516.24 114.6 521.466 114.6ZM619.021 138.28C611.235 138.28 604.301 136.947 598.221 134.28C592.141 131.613 587.341 127.987 583.821 123.4C580.301 118.707 578.328 113.48 577.901 107.72H604.941C605.261 110.813 606.701 113.32 609.261 115.24C611.821 117.16 614.968 118.12 618.701 118.12C622.115 118.12 624.728 117.48 626.541 116.2C628.461 114.813 629.421 113.053 629.421 110.92C629.421 108.36 628.088 106.493 625.421 105.32C622.755 104.04 618.435 102.653 612.461 101.16C606.061 99.6667 600.728 98.12 596.461 96.52C592.195 94.8133 588.515 92.2 585.421 88.68C582.328 85.0533 580.781 80.2 580.781 74.12C580.781 69 582.168 64.36 584.941 60.2C587.821 55.9333 591.981 52.5733 597.421 50.12C602.968 47.6667 609.528 46.44 617.101 46.44C628.301 46.44 637.101 49.2133 643.501 54.76C650.008 60.3067 653.741 67.6667 654.701 76.84H629.421C628.995 73.7467 627.608 71.2933 625.261 69.48C623.021 67.6667 620.035 66.76 616.301 66.76C613.101 66.76 610.648 67.4 608.941 68.68C607.235 69.8533 606.381 71.5067 606.381 73.64C606.381 76.2 607.715 78.12 610.381 79.4C613.155 80.68 617.421 81.96 623.181 83.24C629.795 84.9467 635.181 86.6533 639.341 88.36C643.501 89.96 647.128 92.6267 650.221 96.36C653.421 99.9867 655.075 104.893 655.181 111.08C655.181 116.307 653.688 121 650.701 125.16C647.821 129.213 643.608 132.413 638.061 134.76C632.621 137.107 626.275 138.28 619.021 138.28ZM708.24 138.28C700.453 138.28 693.52 136.947 687.44 134.28C681.36 131.613 676.56 127.987 673.04 123.4C669.52 118.707 667.547 113.48 667.12 107.72H694.16C694.48 110.813 695.92 113.32 698.48 115.24C701.04 117.16 704.187 118.12 707.92 118.12C711.333 118.12 713.947 117.48 715.76 116.2C717.68 114.813 718.64 113.053 718.64 110.92C718.64 108.36 717.307 106.493 714.64 105.32C711.973 104.04 707.653 102.653 701.68 101.16C695.28 99.6667 689.947 98.12 685.68 96.52C681.413 94.8133 677.733 92.2 674.64 88.68C671.547 85.0533 670 80.2 670 74.12C670 69 671.387 64.36 674.16 60.2C677.04 55.9333 681.2 52.5733 686.64 50.12C692.187 47.6667 698.747 46.44 706.32 46.44C717.52 46.44 726.32 49.2133 732.72 54.76C739.227 60.3067 742.96 67.6667 743.92 76.84H718.64C718.213 73.7467 716.827 71.2933 714.48 69.48C712.24 67.6667 709.253 66.76 705.52 66.76C702.32 66.76 699.867 67.4 698.16 68.68C696.453 69.8533 695.6 71.5067 695.6 73.64C695.6 76.2 696.933 78.12 699.6 79.4C702.373 80.68 706.64 81.96 712.4 83.24C719.013 84.9467 724.4 86.6533 728.56 88.36C732.72 89.96 736.347 92.6267 739.44 96.36C742.64 99.9867 744.293 104.893 744.4 111.08C744.4 116.307 742.907 121 739.92 125.16C737.04 129.213 732.827 132.413 727.28 134.76C721.84 137.107 715.493 138.28 708.24 138.28Z" fill="black"/>
<rect x="102.349" y="20.5385" width="50" height="120" transform="rotate(30 102.349 20.5385)" fill="#245AFC"/>
<mask id="mask0" mask-type="alpha" maskUnits="userSpaceOnUse" x="7" y="21" width="117" height="141">
<path d="M32.8152 127.295L88.0652 31.5989L72.0438 22.3489L7.92773 131.401L60.3223 161.651L68.3223 147.795L32.8152 127.295Z" fill="white"/>
</mask>
<g mask="url(#mask0)">
<rect x="73.0144" y="25.7596" width="50" height="120" transform="rotate(30 73.0144 25.7596)" fill="#527FED"/>
</g>
</g>
<defs>
<clipPath id="clip0">
<rect width="774" height="177" fill="white"/>
</clipPath>
</defs>
</svg>
